SplineFontDB: 3.2
FontName: ccbt
FullName: ccbt
FamilyName: ccbt
Weight: Regular
Copyright: Copyright (c) 2022, Civic Creative Base Tokyo
UComments: "2022-9-12: Created with FontForge (http://fontforge.org)"
Version: 001.000
ItalicAngle: 0
UnderlinePosition: -120
UnderlineWidth: 60
Ascent: 1000
Descent: 200
InvalidEm: 0
LayerCount: 2
Layer: 0 0 "Back" 1
Layer: 1 0 "Fore" 0
XUID: [1021 1001 1905714623 12868188]
FSType: 0
OS2Version: 0
OS2_WeightWidthSlopeOnly: 0
OS2_UseTypoMetrics: 1
CreationTime: 1662957316
ModificationTime: 1662965262
PfmFamily: 17
TTFWeight: 400
TTFWidth: 5
LineGap: 108
VLineGap: 0
OS2TypoAscent: 0
OS2TypoAOffset: 1
OS2TypoDescent: 0
OS2TypoDOffset: 1
OS2TypoLinegap: 108
OS2WinAscent: 0
OS2WinAOffset: 1
OS2WinDescent: 0
OS2WinDOffset: 1
HheadAscent: 0
HheadAOffset: 1
HheadDescent: 0
HheadDOffset: 1
OS2Vendor: 'PfEd'
MarkAttachClasses: 1
DEI: 91125
Encoding: UnicodeBmp
UnicodeInterp: none
NameList: AGL For New Fonts
DisplaySize: -48
AntiAlias: 1
FitToEm: 0
WinInfo: 42 7 4
BeginPrivate: 0
EndPrivate
BeginChars: 65536 40

StartChar: A
Encoding: 65 65 0
Width: 1000
Flags: WO
HStem: 0.0195312 21G<100.016 300.008 699.992 899.984> 799.988 199.992<300.008 699.992>
VStem: 100.016 199.992<0.0195312 799.988> 699.992 199.992<0.0195312 799.988>
LayerCount: 2
Fore
SplineSet
300.0078125 999.98046875 m 1
 500 999.98046875 l 1
 699.9921875 999.98046875 l 1
 699.9921875 799.98828125 l 1
 500 799.98828125 l 1
 300.0078125 799.98828125 l 1
 300.0078125 999.98046875 l 1
300.0078125 400.00390625 m 1
 300.0078125 0.01953125 l 1
 100.015625 0.01953125 l 1
 100.015625 799.98828125 l 1
 300.0078125 799.98828125 l 1
 300.0078125 400.00390625 l 1
500 400.00390625 m 1
 699.9921875 400.00390625 l 1
 699.9921875 799.98828125 l 1
 899.984375 799.98828125 l 1
 899.984375 0.01953125 l 1
 699.9921875 0.01953125 l 1
 699.9921875 400.00390625 l 1
 500 200.01171875 l 1
 300.0078125 400.00390625 l 1
 500 400.00390625 l 1
EndSplineSet
Validated: 5
EndChar

StartChar: B
Encoding: 66 66 1
Width: 1000
Flags: W
HStem: -0.980469 199.992<404.727 699.992> 399.004 199.992<300.008 699.992> 598.996 399.984<100.016 300.008 699.992 795.32> 798.988 199.992<445.25 699.992>
VStem: 100.016 199.992<-0.764648 399.004 598.996 998.98> 699.992 199.992<199.012 399.004 598.996 798.988>
LayerCount: 2
Fore
SplineSet
100.015625 998.98046875 m 1xac
 300.0078125 998.98046875 l 1xac
 300.0078125 598.99609375 l 1xcc
 100.015625 598.99609375 l 1
 100.015625 998.98046875 l 1xac
300.0078125 399.00390625 m 1xcc
 300.0078125 598.99609375 l 1
 699.9921875 598.99609375 l 1
 699.9921875 798.98828125 l 1
 500 798.98828125 l 2xdc
 389.548828125 798.98828125 300.0078125 888.52734375 300.0078125 998.98046875 c 1xac
 500 998.98046875 l 1x9c
 699.9921875 998.98046875 l 2xac
 810.443359375 998.98046875 899.984375 909.44140625 899.984375 798.98828125 c 2x9c
 899.984375 598.99609375 l 1xac
 699.9921875 598.99609375 l 1
 699.9921875 399.00390625 l 1
 899.984375 399.00390625 l 1
 899.984375 199.01171875 l 2
 899.984375 88.560546875 810.443359375 -0.98046875 699.9921875 -0.98046875 c 2
 500 -0.98046875 l 1
 300.0078125 -0.98046875 l 1
 100.015625 -0.98046875 l 1
 100.015625 399.00390625 l 1xcc
 100.015625 598.99609375 l 1xac
 300.0078125 399.00390625 l 1xcc
300.0078125 399.00390625 m 1
 300.0078125 -0.7646484375 l 1
 300.124023438 109.588867188 389.620117188 199.01171875 500 199.01171875 c 2
 699.9921875 199.01171875 l 1
 699.9921875 399.00390625 l 1
 300.0078125 399.00390625 l 1
EndSplineSet
Validated: 5
EndChar

StartChar: C
Encoding: 67 67 2
Width: 1000
VWidth: 1000
Flags: W
HStem: 0.0195312 199.992<404.722 899.984> 799.988 199.992<404.672 899.984>
VStem: 100.016 199.992<104.683 895.293>
LayerCount: 2
Fore
SplineSet
300.0078125 799.98828125 m 1
 300.0078125 200.01171875 l 1
 300.0078125 0.2177734375 l 1
 300.114257812 110.579101562 389.612304688 200.01171875 500 200.01171875 c 2
 899.984375 200.01171875 l 1
 899.984375 0.01953125 l 1
 500 0.01953125 l 1
 300.0078125 0.01953125 l 2
 189.5546875 0.01953125 100.015625 89.55859375 100.015625 200.01171875 c 2
 100.015625 799.98828125 l 2
 100.015625 910.411132812 189.5078125 999.931640625 299.919921875 999.98046875 c 2
 300.0078125 999.98046875 l 1
 500 999.98046875 l 1
 899.984375 999.98046875 l 1
 899.984375 799.98828125 l 1
 500 799.98828125 l 2
 389.548828125 799.98828125 300.0078125 889.52734375 300.0078125 999.98046875 c 1
 300.0078125 799.98828125 l 1
EndSplineSet
Validated: 5
EndChar

StartChar: D
Encoding: 68 68 3
Width: 1000
Flags: W
HStem: 0.0195312 199.992<300.008 500 645.242 699.992> 799.988 199.992<300.008 500 645.242 699.992>
VStem: 100.016 399.984<0.0195312 200.012 799.988 999.98> 100.016 199.992<200.012 799.988> 699.992 199.992<200.012 799.988>
LayerCount: 2
Fore
SplineSet
100.015625 999.98046875 m 1xe8
 300.0078125 999.98046875 l 1xd8
 500 999.98046875 l 1
 500 799.98828125 l 1xe8
 300.0078125 799.98828125 l 1
 300.0078125 200.01171875 l 1xd8
 500 200.01171875 l 1
 500 0.01953125 l 1xe8
 300.0078125 0.01953125 l 1xd8
 100.015625 0.01953125 l 1
 100.015625 999.98046875 l 1xe8
699.9921875 0.01953125 m 2
 500 0.01953125 l 1
 500 110.471679688 589.541015625 200.01171875 699.9921875 200.01171875 c 1
 699.9921875 799.98828125 l 1
 589.541015625 799.98828125 500 889.52734375 500 999.98046875 c 1xe8
 699.9921875 999.98046875 l 2
 810.443359375 999.98046875 899.984375 910.44140625 899.984375 799.98828125 c 2
 899.984375 200.01171875 l 2
 899.984375 89.560546875 810.443359375 0.01953125 699.9921875 0.01953125 c 2
EndSplineSet
Validated: 5
EndChar

StartChar: E
Encoding: 69 69 4
Width: 1000
Flags: W
HStem: 0.0195312 199.992<445.25 899.984> 400.004 199.992<445.25 699.992> 799.988 199.992<445.25 899.984>
VStem: 100.016 199.992<0.0195312 400.004 599.996 999.98>
CounterMasks: 1 e0
LayerCount: 2
Fore
SplineSet
100.015625 999.98046875 m 1
 300.0078125 999.98046875 l 1
 300.0078125 599.99609375 l 1
 100.015625 599.99609375 l 1
 100.015625 999.98046875 l 1
300.0078125 999.98046875 m 1
 899.984375 999.98046875 l 1
 899.984375 799.98828125 l 1
 500 799.98828125 l 2
 389.548828125 799.98828125 300.0078125 889.52734375 300.0078125 999.98046875 c 1
100.015625 400.00390625 m 1
 300.0078125 400.00390625 l 1
 300.0078125 0.01953125 l 1
 100.015625 0.01953125 l 1
 100.015625 400.00390625 l 1
500 200.01171875 m 2
 899.984375 200.01171875 l 1
 899.984375 0.01953125 l 1
 300.0078125 0.01953125 l 1
 300.0078125 110.473632812 389.548828125 200.01171875 500 200.01171875 c 2
300.0078125 400.00390625 m 1
 300.0078125 510.458007812 389.548828125 599.99609375 500 599.99609375 c 2
 699.9921875 599.99609375 l 1
 699.9921875 400.00390625 l 1
 300.0078125 400.00390625 l 1
EndSplineSet
Validated: 5
EndChar

StartChar: F
Encoding: 70 70 5
Width: 800
Flags: W
HStem: 0.0195312 21G<100.012 120.012> 0.0195312 21G<100.012 120.012> 400.004 199.992<445.245 699.988> 799.988 199.992<445.246 699.988>
VStem: 100.012 199.992<200.012 400.004 599.996 999.98>
LayerCount: 2
Fore
SplineSet
300.00390625 999.98046875 m 1x38
 300.00390625 599.99609375 l 1
 100.01171875 599.99609375 l 1
 100.01171875 999.98046875 l 1
 300.00390625 999.98046875 l 1x38
300.00390625 999.98046875 m 1
 499.99609375 999.98046875 l 1
 699.98828125 999.98046875 l 1
 699.98828125 799.98828125 l 1
 499.99609375 799.98828125 l 2
 389.544921875 799.98828125 300.00390625 889.52734375 300.00390625 999.98046875 c 1
300.00390625 400.00390625 m 1
 300.00390625 200.01171875 l 1
 100.01171875 0.01953125 l 1xb8
 100.01171875 200.01171875 l 1
 100.01171875 400.00390625 l 1
 300.00390625 400.00390625 l 1
300.00390625 400.00390625 m 1
 300.00390625 510.455078125 389.541992188 599.99609375 499.99609375 599.99609375 c 2
 699.98828125 599.99609375 l 1
 699.98828125 400.00390625 l 1
 499.99609375 400.00390625 l 1
 300.00390625 400.00390625 l 1
EndSplineSet
Validated: 5
EndChar

StartChar: G
Encoding: 71 71 6
Width: 1000
Flags: W
HStem: 0.200195 199.92<500 699.92> 799.88 199.92<500 699.92>
VStem: 100.16 199.92<200.12 799.88> 699.92 199.92<200.12 599.96>
LayerCount: 2
Fore
SplineSet
500 999.799804688 m 1
 699.919921875 999.799804688 l 1
 899.83984375 999.799804688 l 1
 699.919921875 799.879882812 l 1
 500 799.879882812 l 1
 500 999.799804688 l 1
500 200.120117188 m 1
 300.080078125 0.2001953125 l 2
 189.666992188 0.2001953125 100.16015625 89.7080078125 100.16015625 200.120117188 c 2
 100.16015625 799.879882812 l 2
 100.16015625 910.29296875 189.66796875 999.799804688 300.080078125 999.799804688 c 2
 500 999.799804688 l 1
 300.080078125 799.879882812 l 1
 300.080078125 200.120117188 l 1
 500 200.120117188 l 1
699.919921875 200.120117188 m 1
 699.919921875 599.959960938 l 1
 500 400.040039062 l 1
 500 599.959960938 l 1
 699.919921875 599.959960938 l 1
 899.83984375 599.959960938 l 1
 899.83984375 200.120117188 l 1
 699.919921875 0.2001953125 l 1
 500 0.2001953125 l 1
 500 200.120117188 l 1
 699.919921875 200.120117188 l 1
EndSplineSet
Validated: 5
EndChar

StartChar: H
Encoding: 72 72 7
Width: 1000
Flags: W
HStem: 0.200195 21G<100.16 300.08 699.92 899.84> 0.200195 21G<100.16 300.08 699.92 899.84> 400.04 199.92<445.27 554.73> 979.8 20G<100.16 300.08 699.92 899.84>
VStem: 100.16 199.92<0.200195 999.8> 699.92 199.92<0.200195 999.8>
LayerCount: 2
Fore
SplineSet
300.080078125 999.799804688 m 1xbc
 300.080078125 0.2001953125 l 1
 100.16015625 0.2001953125 l 1
 100.16015625 999.799804688 l 1
 300.080078125 999.799804688 l 1xbc
899.83984375 999.799804688 m 1
 899.83984375 0.2001953125 l 1
 699.919921875 0.2001953125 l 1
 699.919921875 999.799804688 l 1
 899.83984375 999.799804688 l 1
300.080078125 400.040039062 m 1
 300.080078125 510.451171875 389.588867188 599.959960938 500 599.959960938 c 2
 699.919921875 599.959960938 l 1
 699.919921875 489.548828125 610.411132812 400.040039062 500 400.040039062 c 2
 300.080078125 400.040039062 l 1
EndSplineSet
Validated: 5
EndChar

StartChar: I
Encoding: 73 73 8
Width: 400
Flags: W
HStem: -0.799805 21G<100.04 299.96> -0.799805 21G<100.04 299.96> 978.8 20G<100.04 299.96>
VStem: 100.04 199.92<-0.799805 998.8>
LayerCount: 2
Fore
SplineSet
100.040039062 998.799804688 m 1xb0
 299.959960938 998.799804688 l 1
 299.959960938 -0.7998046875 l 1
 100.040039062 -0.7998046875 l 1
 100.040039062 998.799804688 l 1xb0
EndSplineSet
Validated: 1
EndChar

StartChar: J
Encoding: 74 74 9
Width: 800
Flags: W
HStem: 0.200195 199.92<300.04 499.96> 200.12 199.92<100.12 300.04> 979.8 20G<499.96 699.88>
VStem: 100.12 199.92<200.12 400.04> 499.96 199.92<200.12 999.8>
LayerCount: 2
Fore
SplineSet
499.959960938 999.799804688 m 1xb8
 699.879882812 999.799804688 l 1
 699.879882812 200.120117188 l 1x78
 499.959960938 0.2001953125 l 1
 300.040039062 0.2001953125 l 1
 300.040039062 200.120117188 l 1
 499.959960938 200.120117188 l 1
 499.959960938 999.799804688 l 1xb8
300.040039062 200.120117188 m 1xb8
 100.120117188 200.120117188 l 1
 100.120117188 400.040039062 l 1
 300.040039062 400.040039062 l 1x78
 300.040039062 200.120117188 l 1xb8
EndSplineSet
Validated: 5
EndChar

StartChar: K
Encoding: 75 75 10
Width: 1000
Flags: W
HStem: 0.200195 21G<100.159 300.079 699.919 899.839> 0.200195 21G<100.159 300.079 699.919 899.839> 400.04 199.92<445.269 499.999 500.197 554.88> 799.88 199.92<699.919 899.839>
VStem: 100.159 199.92<0.200195 999.8> 699.919 199.92<0.200195 295.392 799.88 999.8>
LayerCount: 2
Fore
SplineSet
300.079101562 999.799804688 m 1xbc
 300.079101562 0.2001953125 l 1
 100.159179688 0.2001953125 l 1
 100.159179688 999.799804688 l 1
 300.079101562 999.799804688 l 1xbc
899.838867188 999.799804688 m 1
 899.838867188 799.879882812 l 1
 699.918945312 799.879882812 l 1
 699.918945312 999.799804688 l 1
 899.838867188 999.799804688 l 1
699.918945312 799.879882812 m 1
 699.918945312 599.959960938 l 1
 499.999023438 599.959960938 l 1
 499.999023438 710.37109375 589.5078125 799.879882812 699.918945312 799.879882812 c 1
699.918945312 400.040039062 m 1
 300.079101562 400.040039062 l 1
 300.079101562 510.454101562 389.587890625 599.959960938 499.999023438 599.959960938 c 2
 500.197265625 599.959960938 l 2
 610.518554688 599.854492188 699.918945312 510.387695312 699.918945312 400.040039062 c 1
699.918945312 400.040039062 m 1
 700.009765625 400.040039062 l 2
 810.380859375 399.993164062 899.840820312 310.50390625 899.840820312 200.120117188 c 2
 899.838867188 0.2001953125 l 1
 699.918945312 0.2001953125 l 1
 699.918945312 400.040039062 l 1
EndSplineSet
Validated: 5
EndChar

StartChar: L
Encoding: 76 76 11
Width: 1000
Flags: W
HStem: 0.200195 199.92<300.08 699.92> 979.8 20G<100.16 300.08>
VStem: 100.16 199.92<145.39 999.8>
LayerCount: 2
Fore
SplineSet
300.080078125 999.799804688 m 1
 300.080078125 200.120117188 l 1
 500 200.120117188 l 1
 699.919921875 200.120117188 l 1
 699.919921875 400.040039062 l 1
 899.83984375 400.040039062 l 1
 899.83984375 289.62890625 810.333984375 200.120117188 699.919921875 200.120117188 c 1
 699.919921875 0.2001953125 l 1
 500 0.2001953125 l 1
 300.080078125 0.2001953125 l 1
 300.080078125 200.120117188 l 1
 300.080078125 89.7080078125 210.572265625 0.2001953125 100.16015625 0.2001953125 c 1
 100.16015625 200.120117188 l 1
 100.16015625 999.799804688 l 1
 300.080078125 999.799804688 l 1
EndSplineSet
Validated: 5
EndChar

StartChar: M
Encoding: 77 77 12
Width: 1000
Flags: W
HStem: 1.2002 21G<100.16 300.08 699.92 899.84> 980.8 20G<244.874 300.08 699.92 755.278>
VStem: 100.16 199.92<1.2002 401.04 600.96 855.61> 699.92 199.92<1.2002 401.04 600.96 896.123>
LayerCount: 2
Fore
SplineSet
300.080078125 1000.79980469 m 1
 300.080078125 800.879882812 l 1
 300.080078125 600.959960938 l 1
 500 401.040039062 l 1
 699.919921875 600.959960938 l 1
 699.919921875 800.879882812 l 1
 699.919921875 1000.79980469 l 1
 700.1171875 1000.79980469 l 2
 810.439453125 1000.69335938 899.83984375 911.2265625 899.83984375 800.879882812 c 2
 899.83984375 1.2001953125 l 1
 699.919921875 1.2001953125 l 1
 699.919921875 401.040039062 l 1
 699.919921875 290.62890625 610.4140625 201.120117188 500 201.120117188 c 0
 389.5859375 201.120117188 300.080078125 290.62890625 300.080078125 401.040039062 c 1
 300.080078125 1.2001953125 l 1
 100.16015625 1.2001953125 l 1
 100.16015625 800.879882812 l 2
 100.16015625 911.291992188 189.66796875 1000.79980469 300.080078125 1000.79980469 c 1
EndSplineSet
Validated: 1
EndChar

StartChar: N
Encoding: 78 78 13
Width: 1000
Flags: W
HStem: 0.200195 21G<100.16 300.08 500 899.84> 0.200195 21G<100.16 300.08 500 899.84> 979.8 20G<100.16 300.08 699.92 899.84>
VStem: 100.16 199.92<0.200195 599.96 799.88 999.799> 500 199.92<200.12 400.04 489.549 599.96> 699.92 199.92<200.12 254.85 545.23 999.8>
LayerCount: 2
Fore
SplineSet
699.919921875 999.799804688 m 1x34
 899.83984375 999.799804688 l 1
 899.83984375 599.959960938 l 1
 899.83984375 400.040039062 l 1x34
 789.428710938 400.040039062 699.919921875 489.548828125 699.919921875 599.959960938 c 2x38
 699.919921875 999.799804688 l 1x34
500 599.959960938 m 1xb8
 699.919921875 400.040039062 l 1
 699.919921875 200.120117188 l 1xb8
 699.919921875 310.53125 789.428710938 400.040039062 899.83984375 400.040039062 c 1
 899.83984375 200.120117188 l 1
 899.83984375 0.2001953125 l 1
 699.919921875 0.2001953125 l 1xb4
 500 0.2001953125 l 1
 500 400.040039062 l 1
 500 599.959960938 l 1xb8
300.080078125 599.959960938 m 1
 300.080078125 0.2001953125 l 1
 100.16015625 0.2001953125 l 1
 100.16015625 999.798828125 l 1
 300.080078125 999.798828125 l 1
 300.080078125 799.879882812 l 1
 500 599.959960938 l 1
 300.080078125 599.959960938 l 1
EndSplineSet
Validated: 5
EndChar

StartChar: O
Encoding: 79 79 14
Width: 1000
Flags: W
HStem: 0.200195 199.92<404.738 699.92> 799.88 199.92<445.27 699.92>
VStem: 100.16 199.92<104.827 854.61> 699.92 199.92<200.12 799.88>
LayerCount: 2
Fore
SplineSet
699.919921875 999.799804688 m 2
 810.333984375 999.799804688 899.83984375 910.291992188 899.83984375 799.879882812 c 2
 899.83984375 200.120117188 l 2
 899.83984375 89.7080078125 810.333984375 0.2001953125 699.919921875 0.2001953125 c 2
 500 0.2001953125 l 1
 300.080078125 0.2001953125 l 2
 189.66796875 0.2001953125 100.16015625 89.7080078125 100.16015625 200.120117188 c 2
 100.16015625 799.879882812 l 2
 100.16015625 910.291992188 189.666992188 999.799804688 300.080078125 999.799804688 c 1
 300.080078125 799.879882812 l 1
 300.080078125 200.120117188 l 1
 300.080078125 0.3232421875 l 1
 300.1484375 110.6796875 389.627929688 200.120117188 500 200.120117188 c 2
 699.919921875 200.120117188 l 1
 699.919921875 799.879882812 l 1
 500 799.879882812 l 2
 389.588867188 799.879882812 300.080078125 889.387695312 300.080078125 999.799804688 c 1
 500 999.799804688 l 1
 699.919921875 999.799804688 l 2
EndSplineSet
Validated: 5
EndChar

StartChar: P
Encoding: 80 80 15
Width: 1000
Flags: W
HStem: 0.200195 21G<100.16 300.08> 0.200195 21G<100.16 300.08> 400.04 199.92<445.27 699.92> 799.88 199.92<445.27 699.92>
VStem: 100.16 199.92<0.200195 400.04 599.96 999.8> 699.92 199.92<599.96 799.88>
LayerCount: 2
Fore
SplineSet
100.16015625 999.799804688 m 1x3c
 300.080078125 999.799804688 l 1
 300.080078125 599.959960938 l 1
 100.16015625 599.959960938 l 1
 100.16015625 999.799804688 l 1x3c
300.080078125 400.040039062 m 1
 300.080078125 0.2001953125 l 1
 100.16015625 0.2001953125 l 1xbc
 100.16015625 400.040039062 l 1
 100.16015625 599.959960938 l 1
 300.080078125 400.040039062 l 1
300.080078125 400.040039062 m 1
 300.080078125 510.451171875 389.588867188 599.959960938 500 599.959960938 c 2
 699.919921875 599.959960938 l 1
 699.919921875 799.879882812 l 1
 500 799.879882812 l 2
 389.588867188 799.879882812 300.080078125 889.38671875 300.080078125 999.799804688 c 1
 500 999.799804688 l 1
 699.919921875 999.799804688 l 2
 810.333984375 999.799804688 899.83984375 910.29296875 899.83984375 799.879882812 c 2
 899.83984375 599.959960938 l 2
 899.83984375 489.548828125 810.33203125 400.040039062 699.919921875 400.040039062 c 2
 500 400.040039062 l 1
 300.080078125 400.040039062 l 1
EndSplineSet
Validated: 5
EndChar

StartChar: Q
Encoding: 81 81 16
Width: 1000
Flags: W
HStem: 0.200195 199.92<300.08 500 699.92 754.651> 799.88 199.92<300.08 354.811 500 699.92>
VStem: 100.16 199.92<200.12 799.88> 699.92 199.92<0.200195 95.4932 345.31 799.88>
LayerCount: 2
Fore
SplineSet
500 999.799804688 m 1
 699.919921875 999.799804688 l 2
 810.333984375 999.799804688 899.83984375 910.291992188 899.83984375 799.879882812 c 2
 899.83984375 400.040039062 l 2
 899.83984375 289.62890625 810.333984375 200.120117188 699.919921875 200.120117188 c 1
 699.919921875 400.040039062 l 1
 699.919921875 799.879882812 l 1
 500 799.879882812 l 1
 500 999.799804688 l 1
300.080078125 400.040039062 m 1
 300.080078125 510.451171875 389.588867188 599.959960938 500 599.959960938 c 1
 500 400.040039062 l 1
 610.4140625 400.040039062 699.919921875 310.53125 699.919921875 200.120117188 c 1
 810.333984375 200.120117188 899.83984375 110.611328125 899.83984375 0.2001953125 c 1
 699.919921875 0.2001953125 l 1
 699.919921875 200.120117188 l 1
 699.919921875 89.7080078125 610.4140625 0.2001953125 500 0.2001953125 c 2
 300.080078125 0.2001953125 l 2
 189.66796875 0.2001953125 100.16015625 89.7080078125 100.16015625 200.120117188 c 2
 100.16015625 799.879882812 l 2
 100.16015625 910.291992188 189.666992188 999.799804688 300.080078125 999.799804688 c 2
 500 999.799804688 l 1
 500 889.387695312 410.494140625 799.879882812 300.080078125 799.879882812 c 1
 300.080078125 400.040039062 l 1
300.080078125 400.040039062 m 1
 300.080078125 200.120117188 l 1
 500 200.120117188 l 1
 500 400.040039062 l 1
 300.080078125 400.040039062 l 1
EndSplineSet
Validated: 5
EndChar

StartChar: R
Encoding: 82 82 17
Width: 1000
Flags: W
HStem: 0.200195 21G<100.16 300.08 699.92 899.84> 0.200195 21G<100.16 300.08 699.92 899.84> 400.04 199.92<445.27 595.293> 799.88 199.92<300.08 699.92>
VStem: 100.16 199.92<0.200195 799.88> 699.92 199.92<0.200195 295.413 599.96 799.88>
LayerCount: 2
Fore
SplineSet
100.16015625 999.799804688 m 1xbc
 300.080078125 999.799804688 l 1
 699.919921875 999.799804688 l 2
 810.33203125 999.799804688 899.83984375 910.291992188 899.83984375 799.879882812 c 2
 899.83984375 599.959960938 l 1
 699.919921875 599.959960938 l 1
 699.919921875 799.879882812 l 1
 300.080078125 799.879882812 l 1
 300.080078125 400.040039062 l 1
 300.080078125 0.2001953125 l 1
 100.16015625 0.2001953125 l 1
 100.16015625 999.799804688 l 1xbc
500 599.959960938 m 0
 610.411132812 599.959960938 699.919921875 510.451171875 699.919921875 400.040039062 c 1
 810.33203125 400.040039062 899.83984375 310.53125 899.83984375 200.120117188 c 2
 899.83984375 0.2001953125 l 1
 699.919921875 0.2001953125 l 1
 699.919921875 200.120117188 l 1
 699.919921875 400.040039062 l 1
 500 400.040039062 l 1
 300.080078125 400.040039062 l 1
 300.080078125 510.451171875 389.588867188 599.959960938 500 599.959960938 c 0
EndSplineSet
Validated: 5
EndChar

StartChar: S
Encoding: 83 83 18
Width: 1000
Flags: W
HStem: 0.200195 199.92<100.16 699.92> 400.04 199.92<404.707 595.293> 799.88 199.92<300.08 699.92>
VStem: 100.16 199.92<599.96 799.88> 699.92 199.92<200.12 295.413 599.96 799.88>
CounterMasks: 1 e0
LayerCount: 2
Fore
SplineSet
699.919921875 999.799804688 m 2
 810.333984375 999.799804688 899.83984375 910.29296875 899.83984375 799.879882812 c 2
 899.83984375 599.959960938 l 1
 699.919921875 599.959960938 l 1
 699.919921875 799.879882812 l 1
 300.080078125 799.879882812 l 1
 300.080078125 599.959960938 l 1
 300.080078125 400.040039062 l 1
 300.080078125 510.451171875 389.588867188 599.959960938 500 599.959960938 c 0
 610.411132812 599.959960938 699.919921875 510.451171875 699.919921875 400.040039062 c 1
 810.333984375 400.040039062 899.83984375 310.53125 899.83984375 200.120117188 c 2
 899.83984375 0.2001953125 l 1
 100.16015625 0.2001953125 l 1
 100.16015625 200.120117188 l 1
 699.919921875 200.120117188 l 1
 699.919921875 400.040039062 l 1
 500 400.040039062 l 1
 300.080078125 400.040039062 l 1
 100.16015625 599.959960938 l 1
 100.16015625 799.879882812 l 2
 100.16015625 910.29296875 189.666992188 999.799804688 300.080078125 999.799804688 c 2
 699.919921875 999.799804688 l 2
EndSplineSet
Validated: 5
EndChar

StartChar: T
Encoding: 84 84 19
Width: 800
Flags: W
HStem: 0.200195 21G<300.04 499.96> 0.200195 21G<300.04 499.96> 799.88 199.92<100.12 699.88>
VStem: 300.04 199.92<0.200195 695.253>
LayerCount: 2
Fore
SplineSet
699.879882812 999.799804688 m 1xb0
 699.879882812 799.879882812 l 1
 499.959960938 799.879882812 l 1
 499.959960938 599.959960938 l 1
 499.959960938 0.2001953125 l 1
 300.040039062 0.2001953125 l 1
 300.040039062 599.959960938 l 2
 300.040039062 710.37109375 389.548828125 799.879882812 499.959960938 799.879882812 c 1
 100.120117188 799.879882812 l 1
 100.120117188 999.799804688 l 1
 699.879882812 999.799804688 l 1xb0
EndSplineSet
Validated: 5
EndChar

StartChar: U
Encoding: 85 85 20
Width: 1000
Flags: W
HStem: 0.200195 199.92<445.269 554.731> 979.8 20G<100.16 300.08 699.92 899.84>
VStem: 100.16 199.92<345.31 999.8> 699.92 199.92<345.31 999.8>
LayerCount: 2
Fore
SplineSet
100.16015625 400.040039062 m 2
 100.16015625 999.799804688 l 1
 300.080078125 999.799804688 l 1
 300.080078125 400.040039062 l 1
 300.080078125 200.120117188 l 1
 189.666992188 200.120117188 100.16015625 289.62890625 100.16015625 400.040039062 c 2
699.919921875 200.120117188 m 1
 699.919921875 89.7080078125 610.4140625 0.2001953125 500 0.2001953125 c 0
 389.5859375 0.2001953125 300.080078125 89.7080078125 300.080078125 200.120117188 c 1
 500 200.120117188 l 1
 699.919921875 200.120117188 l 1
699.919921875 400.040039062 m 1
 699.919921875 999.799804688 l 1
 899.83984375 999.799804688 l 1
 899.83984375 400.040039062 l 2
 899.83984375 289.62890625 810.333984375 200.120117188 699.919921875 200.120117188 c 1
 699.919921875 400.040039062 l 1
EndSplineSet
Validated: 5
EndChar

StartChar: V
Encoding: 86 86 21
Width: 1000
Flags: W
HStem: 0.200195 21G<480 520> 0.200195 21G<480 520> 979.8 20G<100.16 300.08 699.92 899.84>
VStem: 100.16 199.92<400.04 999.8> 699.92 199.92<400.04 999.8>
LayerCount: 2
Fore
SplineSet
300.080078125 400.040039062 m 1x38
 100.16015625 400.040039062 l 1
 100.16015625 999.799804688 l 1
 300.080078125 999.799804688 l 1
 300.080078125 400.040039062 l 1x38
300.080078125 200.120117188 m 1
 100.16015625 200.120117188 l 1
 100.16015625 400.040039062 l 1
 300.080078125 200.120117188 l 1
699.919921875 200.120117188 m 1
 500 0.2001953125 l 1xb8
 300.080078125 200.120117188 l 1
 500 200.120117188 l 1
 699.919921875 200.120117188 l 1
899.83984375 400.040039062 m 1
 899.83984375 200.120117188 l 1
 699.919921875 200.120117188 l 1
 899.83984375 400.040039062 l 1
899.83984375 400.040039062 m 1
 699.919921875 400.040039062 l 1
 699.919921875 999.799804688 l 1
 899.83984375 999.799804688 l 1
 899.83984375 400.040039062 l 1
EndSplineSet
Validated: 5
EndChar

StartChar: W
Encoding: 87 87 22
Width: 1000
Flags: W
HStem: 0.200195 21G<280.08 300.08 699.92 719.92> 0.200195 21G<280.08 300.08 699.92 719.92> 979.8 20G<100.16 300.08 699.92 899.84>
VStem: 100.16 199.92<200.12 999.8> 699.92 199.92<200.12 999.8>
LayerCount: 2
Fore
SplineSet
100.16015625 200.120117188 m 1xb8
 100.16015625 999.799804688 l 1
 300.080078125 999.799804688 l 1
 300.080078125 400.040039062 l 1
 300.080078125 200.120117188 l 1
 300.080078125 0.2001953125 l 1
 100.16015625 200.120117188 l 1xb8
699.919921875 400.040039062 m 1
 500 200.120117188 l 1
 300.080078125 400.040039062 l 1
 500 599.959960938 l 1
 699.919921875 400.040039062 l 1
899.83984375 200.120117188 m 1
 699.919921875 0.2001953125 l 1
 699.919921875 200.120117188 l 1
 699.919921875 400.040039062 l 1
 699.919921875 999.799804688 l 1
 899.83984375 999.799804688 l 1
 899.83984375 200.120117188 l 1
EndSplineSet
Validated: 5
EndChar

StartChar: X
Encoding: 88 88 23
Width: 1000
Flags: W
HStem: 1.2002 21G<100.16 120.16 879.84 899.84> 980.8 20G<100.16 120.16 879.84 899.84>
LayerCount: 2
Fore
SplineSet
100.16015625 800.879882812 m 1
 100.16015625 1000.79980469 l 1
 300.080078125 800.879882812 l 1
 500 600.959960938 l 1
 699.919921875 800.879882812 l 1
 899.83984375 1000.79980469 l 1
 899.83984375 800.879882812 l 1
 899.83984375 600.959960938 l 1
 699.919921875 600.959960938 l 1
 699.919921875 401.040039062 l 1
 899.83984375 401.040039062 l 1
 899.83984375 201.120117188 l 1
 899.83984375 1.2001953125 l 1
 699.919921875 201.120117188 l 1
 500 401.040039062 l 1
 300.080078125 201.120117188 l 1
 100.16015625 1.2001953125 l 1
 100.16015625 201.120117188 l 1
 100.16015625 401.040039062 l 1
 300.080078125 401.040039062 l 1
 300.080078125 600.959960938 l 1
 100.16015625 600.959960938 l 1
 100.16015625 800.879882812 l 1
EndSplineSet
Validated: 1
EndChar

StartChar: Y
Encoding: 89 89 24
Width: 1000
Flags: W
HStem: 0.200195 199.92<300.08 500> 979.8 20G<100.16 300.08 699.92 899.84>
VStem: 100.16 199.92<799.88 999.8> 699.92 199.92<104.827 454.77 799.88 999.8>
LayerCount: 2
Fore
SplineSet
300.080078125 999.799804688 m 1
 300.080078125 799.879882812 l 1
 300.080078125 599.959960938 l 1
 100.16015625 799.879882812 l 1
 100.16015625 999.799804688 l 1
 300.080078125 999.799804688 l 1
699.919921875 599.959960938 m 1
 500 400.040039062 l 1
 300.080078125 599.959960938 l 1
 500 599.959960938 l 1
 699.919921875 599.959960938 l 1
699.919921875 599.959960938 m 1
 699.919921875 799.879882812 l 1
 699.919921875 999.799804688 l 1
 899.83984375 999.799804688 l 1
 899.83984375 799.879882812 l 1
 699.919921875 599.959960938 l 1
899.83984375 200.120117188 m 2
 899.83984375 89.7080078125 810.33203125 0.2001953125 699.919921875 0.2001953125 c 2
 500 0.2001953125 l 1
 300.080078125 0.2001953125 l 1
 100.16015625 200.120117188 l 1
 300.080078125 200.120117188 l 1
 500 200.120117188 l 1
 699.919921875 0.2001953125 l 1
 699.919921875 200.120117188 l 1
 699.919921875 400.040039062 l 1
 699.919921875 599.959960938 l 1
 810.33203125 599.959960938 899.83984375 510.451171875 899.83984375 400.040039062 c 2
 899.83984375 200.120117188 l 2
EndSplineSet
Validated: 5
EndChar

StartChar: Z
Encoding: 90 90 25
Width: 1000
Flags: W
HStem: 0.200195 199.92<300.08 699.92> 0.200195 21G<879.84 899.84> 799.88 199.92<300.08 699.92>
VStem: 100.16 199.92<200.12 400.04> 699.92 199.92<599.96 799.88>
LayerCount: 2
Fore
SplineSet
300.080078125 799.879882812 m 1xb8
 300.080078125 999.799804688 l 1
 699.919921875 999.799804688 l 1
 899.83984375 799.879882812 l 1
 899.83984375 599.959960938 l 1
 699.919921875 599.959960938 l 1
 699.919921875 400.040039062 l 1
 699.919921875 200.120117188 l 1
 899.83984375 200.120117188 l 1xb8
 899.83984375 0.2001953125 l 1x78
 699.919921875 200.120117188 l 1
 699.919921875 0.2001953125 l 1
 300.080078125 0.2001953125 l 1
 100.16015625 200.120117188 l 1
 100.16015625 400.040039062 l 1
 300.080078125 400.040039062 l 1
 300.080078125 200.120117188 l 1
 699.919921875 200.120117188 l 1
 500 400.040039062 l 1
 300.080078125 599.959960938 l 1
 500 599.959960938 l 1
 699.919921875 599.959960938 l 1
 699.919921875 799.879882812 l 1
 300.080078125 799.879882812 l 1xb8
300.080078125 799.879882812 m 1
 100.16015625 799.879882812 l 1
 100.16015625 999.799804688 l 1
 300.080078125 799.879882812 l 1
EndSplineSet
Validated: 5
EndChar

StartChar: exclam
Encoding: 33 33 26
Width: 400
Flags: W
HStem: 0.200195 199.92<100.04 299.96> 979.8 20G<100.04 299.96>
VStem: 100.04 199.92<0.200195 200.12 400.04 999.8>
LayerCount: 2
Fore
SplineSet
100.040039062 200.120117188 m 1
 299.959960938 200.120117188 l 1
 299.959960938 0.2001953125 l 1
 100.040039062 0.2001953125 l 1
 100.040039062 200.120117188 l 1
100.040039062 999.799804688 m 1
 299.959960938 999.799804688 l 1
 299.959960938 400.040039062 l 1
 100.040039062 400.040039062 l 1
 100.040039062 999.799804688 l 1
EndSplineSet
Validated: 1
EndChar

StartChar: comma
Encoding: 44 44 27
Width: 400
Flags: W
HStem: 0.400391 199.199
VStem: 100.4 199.199
LayerCount: 2
Fore
SplineSet
100.400390625 199.599609375 m 1
 299.599609375 199.599609375 l 1
 100.400390625 0.400390625 l 1
 100.400390625 199.599609375 l 1
EndSplineSet
Validated: 1
EndChar

StartChar: period
Encoding: 46 46 28
Width: 400
Flags: W
HStem: 0.400391 199.199<100.4 299.6>
VStem: 100.4 199.199<0.400391 199.6>
LayerCount: 2
Fore
SplineSet
100.400390625 199.599609375 m 1
 299.599609375 199.599609375 l 1
 299.599609375 0.400390625 l 1
 100.400390625 0.400390625 l 1
 100.400390625 199.599609375 l 1
EndSplineSet
Validated: 1
EndChar

StartChar: question
Encoding: 63 63 29
Width: 800
Flags: W
HStem: 0.200195 199.92<300.04 499.96> 799.88 199.919<300.04 499.96>
VStem: 300.04 199.92<0.200195 200.12 400.04 599.96> 499.96 199.92<704.587 799.88>
LayerCount: 2
Fore
SplineSet
499.959960938 999.799804688 m 1xd0
 610.37109375 999.799804688 699.879882812 910.291992188 699.879882812 799.879882812 c 0xd0
 699.879882812 689.46875 610.37109375 599.959960938 499.959960938 599.959960938 c 1
 499.959960938 400.040039062 l 1
 300.040039062 200.120117188 l 1
 499.959960938 200.120117188 l 1
 499.959960938 0.2001953125 l 1
 300.040039062 0.2001953125 l 1
 300.040039062 200.120117188 l 1
 300.040039062 400.040039062 l 1
 300.040039062 599.959960938 l 1
 499.959960938 599.959960938 l 1xe0
 499.959960938 799.879882812 l 1xd0
 300.040039062 799.879882812 l 1
 100.120117188 599.959960938 l 1
 100.120117188 799.879882812 l 1
 100.120117188 910.291992188 189.627929688 999.798828125 300.040039062 999.798828125 c 2xe0
 499.959960938 999.798828125 l 1
 499.959960938 999.799804688 l 1xd0
EndSplineSet
Validated: 5
EndChar

StartChar: zero
Encoding: 48 48 30
Width: 1000
Flags: W
HStem: 0.200195 199.92<300.08 699.92> 799.88 199.92<300.08 699.92>
VStem: 100.16 199.92<400.04 799.88> 699.92 199.92<200.12 599.96>
LayerCount: 2
Fore
SplineSet
300.080078125 999.799804688 m 2
 699.919921875 999.799804688 l 2
 810.333984375 999.799804688 899.83984375 910.29296875 899.83984375 799.879882812 c 2
 899.83984375 200.120117188 l 2
 899.83984375 89.7080078125 810.33203125 0.2001953125 699.919921875 0.2001953125 c 2
 300.080078125 0.2001953125 l 2
 189.666992188 0.2001953125 100.16015625 89.7060546875 100.16015625 200.120117188 c 2
 100.16015625 799.879882812 l 2
 100.16015625 910.29296875 189.666992188 999.799804688 300.080078125 999.799804688 c 2
300.080078125 200.120117188 m 1
 699.919921875 200.120117188 l 1
 699.919921875 599.959960938 l 1
 500 599.959960938 l 1
 699.919921875 799.879882812 l 1
 300.080078125 799.879882812 l 1
 300.080078125 400.040039062 l 1
 500 400.040039062 l 1
 300.080078125 200.120117188 l 1
EndSplineSet
Validated: 1
EndChar

StartChar: one
Encoding: 49 49 31
Width: 600
Flags: W
HStem: 0.200195 21G<300 499.92> 0.200195 21G<300 499.92> 979.8 20G<100.08 300 300 499.92>
VStem: 300 199.92<0.200195 999.8>
LayerCount: 2
Fore
SplineSet
300 999.799804688 m 1x30
 100.080078125 799.879882812 l 1
 100.080078125 999.799804688 l 1
 300 999.799804688 l 1x30
300 999.799804688 m 1
 499.919921875 999.799804688 l 1
 499.919921875 0.2001953125 l 1
 300 0.2001953125 l 1xb0
 300 999.799804688 l 1
EndSplineSet
Validated: 5
EndChar

StartChar: two
Encoding: 50 50 32
Width: 1000
Flags: W
HStem: 0.200195 199.92<300.08 699.92 804.547 899.84> 400.04 199.92<404.707 595.23> 799.88 199.92<300.08 699.92>
VStem: 100.16 199.92<200.12 295.413 599.96 799.88> 699.92 199.92<0.200195 0.200195 599.96 799.88>
CounterMasks: 1 e0
LayerCount: 2
Fore
SplineSet
699.919921875 999.799804688 m 2
 810.333984375 999.799804688 899.83984375 910.29296875 899.83984375 799.879882812 c 2
 899.83984375 599.959960938 l 1
 699.919921875 400.040039062 l 1
 300.080078125 400.040039062 l 1
 300.080078125 200.120117188 l 1
 699.919921875 200.120117188 l 1
 699.919921875 0.2001953125 l 1
 699.919921875 110.611328125 789.428710938 200.120117188 899.83984375 200.120117188 c 1
 899.83984375 0.2001953125 l 1
 699.919921875 0.2001953125 l 1
 100.16015625 0.2001953125 l 1
 100.16015625 200.120117188 l 2
 100.16015625 310.53125 189.666992188 400.040039062 300.080078125 400.040039062 c 1
 300.080078125 510.451171875 389.588867188 599.959960938 500 599.959960938 c 0
 610.330078125 599.959960938 699.786132812 510.586914062 699.919921875 400.290039062 c 1
 699.919921875 799.879882812 l 1
 300.080078125 799.879882812 l 1
 300.080078125 599.959960938 l 1
 100.16015625 599.959960938 l 1
 100.16015625 799.879882812 l 2
 100.16015625 910.29296875 189.666992188 999.799804688 300.080078125 999.799804688 c 2
 699.919921875 999.799804688 l 2
EndSplineSet
Validated: 5
EndChar

StartChar: three
Encoding: 51 51 33
Width: 1000
Flags: W
HStem: 0.200195 199.92<245.349 754.65> 200.12 199.92<100.16 154.891 699.92 899.84> 400.04 199.92<445.27 595.294>
VStem: 699.92 199.92<200.12 400.04 799.88 799.88>
LayerCount: 2
Fore
SplineSet
699.919921875 999.799804688 m 2x30
 300.080078125 999.799804688 l 2
 189.666992188 999.799804688 100.16015625 910.29296875 100.16015625 799.879882812 c 2
 100.16015625 599.959960938 l 1
 300.080078125 599.959960938 l 1x30
 300.080078125 799.879882812 l 1
 699.919921875 799.879882812 l 1
 699.919921875 400.040039062 l 1x50
 300.080078125 400.040039062 l 1
 300.080078125 510.451171875 389.588867188 599.959960938 500 599.959960938 c 0x30
 610.4140625 599.959960938 699.919921875 510.451171875 699.919921875 400.040039062 c 1x50
 899.83984375 599.959960938 l 1
 899.83984375 799.879882812 l 2
 899.83984375 910.29296875 810.333984375 999.799804688 699.919921875 999.799804688 c 2x30
699.919921875 400.040039062 m 1x50
 899.83984375 400.040039062 l 1
 899.83984375 200.120117188 l 1x50
 699.919921875 200.120117188 l 1x90
 699.919921875 400.040039062 l 1x50
300.080078125 200.120117188 m 1x90
 699.919921875 200.120117188 l 1x90
 899.83984375 200.120117188 l 1x50
 899.83984375 89.7080078125 810.33203125 0.2001953125 699.919921875 0.2001953125 c 2
 300.080078125 0.2001953125 l 2x90
 189.666992188 0.2001953125 100.16015625 89.7060546875 100.16015625 200.120117188 c 1x50
 300.080078125 200.120117188 l 1x90
100.16015625 400.040039062 m 1x50
 210.573242188 400.040039062 300.080078125 310.53125 300.080078125 200.120117188 c 1x90
 100.16015625 200.120117188 l 1
 100.16015625 400.040039062 l 1x50
EndSplineSet
Validated: 5
EndChar

StartChar: four
Encoding: 52 52 34
Width: 1000
Flags: W
HStem: 0.200195 21G<500 699.92> 0.200195 21G<500 699.92> 200.12 199.92<300.08 500> 979.8 20G<244.874 699.92>
VStem: 100.16 199.92<400.04 799.88> 500 199.92<0.200195 200.12 400.04 999.8>
LayerCount: 2
Fore
SplineSet
500 999.799804688 m 1xbc
 699.919921875 999.799804688 l 1
 699.919921875 400.040039062 l 1
 899.83984375 400.040039062 l 1
 699.919921875 200.120117188 l 1
 699.919921875 0.2001953125 l 1
 500 0.2001953125 l 1
 500 200.120117188 l 1
 300.080078125 200.120117188 l 1
 100.16015625 200.120117188 l 1
 100.16015625 799.879882812 l 2
 100.16015625 910.29296875 189.66796875 999.799804688 300.080078125 999.799804688 c 2
 500 999.799804688 l 1xbc
500 999.799804688 m 1
 300.080078125 799.879882812 l 1
 300.080078125 400.040039062 l 1
 500 400.040039062 l 1
 500 999.799804688 l 1
EndSplineSet
Validated: 5
EndChar

StartChar: five
Encoding: 53 53 35
Width: 1000
Flags: W
HStem: 0.200195 199.92<100.16 195.454 300.08 699.92> 400.04 199.92<300.08 500> 799.88 199.92<100.41 155.08 300.08 899.84>
VStem: 100.16 199.92<145.39 200.12 599.96 799.88 904.57 999.8> 699.92 199.92<200.12 495.333>
CounterMasks: 1 e0
LayerCount: 2
Fore
SplineSet
899.83984375 999.799804688 m 1
 899.83984375 799.879882812 l 1
 300.080078125 799.879882812 l 1
 300.080078125 599.959960938 l 1
 500 599.959960938 l 1
 699.919921875 599.959960938 l 2
 810.333984375 599.959960938 899.83984375 510.451171875 899.83984375 400.040039062 c 2
 899.83984375 200.120117188 l 2
 899.83984375 89.7080078125 810.33203125 0.2001953125 699.919921875 0.2001953125 c 2
 300.080078125 0.2001953125 l 1
 300.080078125 200.120117188 l 1
 300.080078125 89.7080078125 210.573242188 0.2001953125 100.16015625 0.2001953125 c 1
 100.16015625 200.120117188 l 1
 300.080078125 200.120117188 l 1
 699.919921875 200.120117188 l 1
 699.919921875 400.040039062 l 1
 699.919921875 599.959960938 l 1
 500 400.040039062 l 1
 300.080078125 400.040039062 l 2
 189.666992188 400.040039062 100.16015625 489.548828125 100.16015625 599.959960938 c 2
 100.16015625 799.879882812 l 1
 100.16015625 999.799804688 l 1
 300.080078125 999.799804688 l 1
 300.080078125 889.470703125 210.70703125 800.014648438 100.41015625 799.879882812 c 1
 300.080078125 799.879882812 l 1
 300.080078125 999.799804688 l 1
 899.83984375 999.799804688 l 1
EndSplineSet
Validated: 5
EndChar

StartChar: six
Encoding: 54 54 36
Width: 1000
Flags: W
HStem: 0.200195 199.92<300.08 699.92> 400.04 199.92<300.08 699.92> 799.88 199.92<300.08 754.651>
VStem: 100.16 199.92<145.389 400.04 599.96 799.88> 699.92 199.92<200.12 400.04>
CounterMasks: 1 e0
LayerCount: 2
Fore
SplineSet
699.919921875 999.799804688 m 1
 899.83984375 999.799804688 l 1
 899.83984375 889.38671875 810.333984375 799.879882812 699.919921875 799.879882812 c 2
 300.080078125 799.879882812 l 1
 300.080078125 599.959960938 l 1
 699.919921875 599.959960938 l 2
 810.333984375 599.959960938 899.83984375 510.454101562 899.83984375 400.040039062 c 2
 899.83984375 200.120117188 l 2
 899.83984375 89.7060546875 810.333984375 0.2001953125 699.919921875 0.2001953125 c 2
 300.080078125 0.2001953125 l 1
 300.080078125 200.120117188 l 1
 300.080078125 89.7060546875 210.573242188 0.2001953125 100.16015625 0.2001953125 c 1
 100.16015625 200.120117188 l 1
 100.16015625 599.959960938 l 1
 100.16015625 799.879882812 l 2
 100.16015625 910.291992188 189.666992188 999.799804688 300.080078125 999.799804688 c 2
 699.919921875 999.799804688 l 1
699.919921875 400.040039062 m 1
 300.080078125 400.040039062 l 1
 300.080078125 200.120117188 l 1
 699.919921875 200.120117188 l 1
 699.919921875 400.040039062 l 1
EndSplineSet
Validated: 5
EndChar

StartChar: seven
Encoding: 55 55 37
Width: 1000
Flags: W
HStem: 0.200195 21G<500 699.92> 0.200195 21G<500 699.92> 799.88 199.92<300.08 699.92>
VStem: 500 199.92<0.200195 654.69>
LayerCount: 2
Fore
SplineSet
500 599.959960938 m 2xb0
 500 710.37109375 589.508789062 799.879882812 699.919921875 799.879882812 c 1
 699.919921875 599.959960938 l 1
 699.919921875 0.2001953125 l 1
 500 0.2001953125 l 1
 500 599.959960938 l 2xb0
699.919921875 799.879882812 m 1
 300.080078125 799.879882812 l 1
 100.16015625 599.959960938 l 1
 100.16015625 799.879882812 l 2
 100.16015625 910.29296875 189.666992188 999.799804688 300.080078125 999.799804688 c 2
 699.919921875 999.799804688 l 1
 899.83984375 999.799804688 l 1
 699.919921875 799.879882812 l 1
EndSplineSet
Validated: 5
EndChar

StartChar: eight
Encoding: 56 56 38
Width: 1000
Flags: W
HStem: 0.200195 199.92<300.08 699.92> 400.04 199.92<404.706 554.731> 799.88 199.92<300.08 699.92>
VStem: 100.16 199.92<200.12 254.851 704.587 799.88> 699.92 199.92<200.12 254.851 745.149 799.88>
CounterMasks: 1 e0
LayerCount: 2
Fore
SplineSet
699.919921875 999.799804688 m 2
 810.333984375 999.799804688 899.83984375 910.291992188 899.83984375 799.879882812 c 0
 899.83984375 689.465820312 810.333984375 599.959960938 699.919921875 599.959960938 c 1
 699.919921875 799.879882812 l 1
 300.080078125 799.879882812 l 1
 300.080078125 599.959960938 l 1
 500 599.959960938 l 2
 610.4140625 599.959960938 699.919921875 510.454101562 699.919921875 400.040039062 c 1
 500 400.040039062 l 2
 389.5859375 400.040039062 300.080078125 489.548828125 300.080078125 599.959960938 c 1
 189.666992188 599.959960938 100.16015625 689.46875 100.16015625 799.879882812 c 0
 100.16015625 910.291992188 189.666992188 999.799804688 300.080078125 999.799804688 c 2
 699.919921875 999.799804688 l 2
100.16015625 200.120117188 m 0
 100.16015625 310.534179688 189.666992188 400.040039062 300.080078125 400.040039062 c 1
 300.080078125 200.120117188 l 1
 699.919921875 200.120117188 l 1
 699.919921875 400.040039062 l 1
 810.333984375 400.040039062 899.83984375 310.534179688 899.83984375 200.120117188 c 0
 899.83984375 89.7060546875 810.333984375 0.2001953125 699.919921875 0.2001953125 c 2
 300.080078125 0.2001953125 l 2
 189.666992188 0.2001953125 100.16015625 89.7060546875 100.16015625 200.120117188 c 0
EndSplineSet
Validated: 5
EndChar

StartChar: nine
Encoding: 57 57 39
Width: 1000
Flags: W
HStem: 0.200195 199.92<300.08 699.92> 400.04 199.92<300.08 595.293> 799.88 199.92<300.08 595.435>
VStem: 100.16 199.92<599.96 799.88> 699.92 199.92<200.12 400.04 599.96 999.8>
CounterMasks: 1 e0
LayerCount: 2
Fore
SplineSet
899.83984375 999.799804688 m 1
 899.83984375 599.959960938 l 1
 899.83984375 400.040039062 l 1
 899.83984375 200.120117188 l 2
 899.83984375 89.7080078125 810.33203125 0.2001953125 699.919921875 0.2001953125 c 2
 300.080078125 0.2001953125 l 1
 300.080078125 200.120117188 l 1
 699.919921875 200.120117188 l 1
 699.919921875 400.040039062 l 1
 500 400.040039062 l 1
 300.080078125 400.040039062 l 2
 189.666992188 400.040039062 100.16015625 489.548828125 100.16015625 599.959960938 c 2
 100.16015625 799.879882812 l 2
 100.16015625 910.29296875 189.666992188 999.799804688 300.080078125 999.799804688 c 2
 500 999.799804688 l 1
 699.919921875 999.799804688 l 1
 899.83984375 999.799804688 l 1
899.83984375 599.959960938 m 1
 699.919921875 599.959960938 l 1
 699.919921875 999.799804688 l 1
 699.919921875 889.470703125 610.547851562 800.014648438 500.25 799.879882812 c 2
 500 799.879882812 l 1
 300.080078125 799.879882812 l 1
 300.080078125 599.959960938 l 1
 500 599.959960938 l 2
 610.411132812 599.959960938 699.919921875 510.451171875 699.919921875 400.040039062 c 1
 899.83984375 599.959960938 l 1
EndSplineSet
Validated: 5
EndChar
